<svg id="Capa_1" enable-background="new 0 0 512 512" height="200" viewBox="0 0 512 512" width="200" xmlns="http://www.w3.org/2000/svg"><g fill = "#740700"><path d="m261.58 140.62c5.644-1.057 10.882-3.283 15.45-6.417l11.278 11.278c2.929 2.929 7.678 2.929 10.606 0 2.929-2.929 2.929-7.678 0-10.606l-11.278-11.278c3.134-4.568 5.361-9.806 6.417-15.45h15.932c4.142 0 7.5-3.358 7.5-7.5s-3.358-7.5-7.5-7.5h-15.932c-1.057-5.644-3.283-10.882-6.417-15.45l11.278-11.278c2.929-2.929 2.929-7.678 0-10.606-2.929-2.929-7.678-2.929-10.606 0l-11.278 11.278c-4.568-3.134-9.806-5.36-15.45-6.417v-15.933c0-4.142-3.358-7.5-7.5-7.5s-7.5 3.358-7.5 7.5v15.932c-5.645 1.057-10.882 3.283-15.45 6.417l-11.278-11.278c-2.929-2.929-7.678-2.929-10.606 0-2.929 2.929-2.929 7.678 0 10.606l11.278 11.278c-3.134 4.568-5.36 9.805-6.417 15.45h-15.933c-4.142 0-7.5 3.358-7.5 7.5s3.358 7.5 7.5 7.5h15.933c1.057 5.644 3.283 10.882 6.417 15.45l-11.279 11.279c-2.929 2.929-2.929 7.678 0 10.606 2.929 2.929 7.678 2.929 10.606 0l11.279-11.279c4.568 3.134 9.806 5.36 15.45 6.417v15.932c0 4.142 3.358 7.5 7.5 7.5s7.5-3.358 7.5-7.5zm-33.165-39.633c.011-.24.011-.44 0-.68.181-13.881 11.437-25.14 25.317-25.325.24.011.452.011.697 0 13.877.186 25.131 11.439 25.317 25.317-.011.24-.011.452 0 .697-.186 13.88-11.444 25.136-25.325 25.317-.24-.011-.44-.011-.68 0-13.885-.182-25.145-11.442-25.326-25.326z"/><path d="m266.621 290.17c4.142 0 7.5-3.358 7.5-7.5v-2.207h28.354c38.592 0 69.988-31.396 69.988-69.988v-4.584c0-5.185-4.219-9.404-9.404-9.404h-33.95c-22.28 0-42.161 10.465-54.988 26.737v-32.446c3.752-4.536 7.07-10.701 9.504-18.802 19.706 10.6 34.211 7.25 41.623-.162s10.762-21.917.162-41.623c21.429-6.438 29.317-19.064 29.317-29.545 0-10.482-7.887-23.107-29.317-29.546 10.6-19.706 7.25-34.211-.162-41.623-7.411-7.411-21.917-10.76-41.622-.162-6.439-21.428-19.064-29.315-29.546-29.315-10.481 0-23.107 7.889-29.546 29.317-19.705-10.6-34.21-7.25-41.622.162s-10.762 21.916-.162 41.623c-21.43 6.439-29.317 19.064-29.317 29.546 0 10.481 7.889 23.107 29.316 29.545-10.6 19.706-7.25 34.211.162 41.623 7.411 7.41 21.917 10.761 41.623.162 2.434 8.101 5.752 14.266 9.504 18.802v46.917c-12.393-15.33-31.345-25.15-52.548-25.15h-32.297c-5.325 0-9.657 4.332-9.657 9.657v4.078c0 4.521.45 9.042 1.338 13.439.82 4.06 4.775 6.687 8.836 5.867 4.06-.82 6.687-4.776 5.867-8.836-.608-3.012-.953-6.103-1.026-9.204h26.938c26.015 0 47.676 19.003 51.829 43.857l-37.131-26.044c-3.389-2.377-8.068-1.559-10.447 1.833-2.378 3.391-1.558 8.068 1.833 10.447l30.21 21.189h-10.7c-13.792 0-26.822-5.303-36.692-14.932-2.965-2.894-7.713-2.835-10.605.131-2.893 2.965-2.834 7.713.131 10.605 12.688 12.378 29.438 19.196 47.167 19.196h26.954v32.47h-73.567c-5.659 0-10.263 4.604-10.263 10.263v31.822c0 5.002 3.597 9.179 8.34 10.082l16.305 123.846c.728 5.523 5.477 9.688 11.047 9.688h136.359c5.571 0 10.32-4.165 11.048-9.688l16.305-123.845c4.743-.903 8.341-5.08 8.341-10.082v-31.822c0-5.659-4.604-10.263-10.263-10.263h-73.568v-8.629c0-4.142-3.358-7.5-7.5-7.5s-7.5 3.358-7.5 7.5v8.629h-10.083c0-52.333 0-63.435 0-125.606 3.24.771 6.603.828 10.083 0v81.976c-.001 4.141 3.357 7.499 7.499 7.499zm76.331 73.478h-120.246c-4.142 0-7.5 3.358-7.5 7.5s3.358 7.5 7.5 7.5h111.752l-15.581 118.352h-129.594l-15.581-118.352h14.004c4.142 0 7.5-3.358 7.5-7.5s-3.358-7.5-7.5-7.5h-22.491c-.002 0-.005 0-.007 0v-22.348h177.744zm-22.205-284.895c0 .001-.001.002-.002.003l-.001.002c0-.001.002-.004.003-.005zm-83.594 81.695c-.798-4.171-4.435-7.049-8.52-7.049-1.711 0-3.409.509-4.872 1.504-14.953 10.16-26.159 10.389-30.244 6.306-4.084-4.085-3.854-15.292 6.304-30.241 1.648-2.424 1.964-5.487.845-8.193-1.12-2.707-3.507-4.651-6.39-5.202-17.756-3.389-25.844-11.149-25.844-16.926 0-5.776 8.087-13.537 25.842-16.926 2.88-.549 5.269-2.492 6.39-5.198s.806-5.77-.841-8.194c-10.159-14.952-10.39-26.159-6.306-30.243 4.085-4.086 15.292-3.854 30.244 6.306 2.423 1.646 5.485 1.962 8.192.842 2.705-1.12 4.649-3.508 5.2-6.389 3.389-17.758 11.15-25.845 16.927-25.845 5.776 0 13.537 8.087 16.926 25.842.549 2.879 2.491 5.268 5.196 6.39 2.706 1.121 5.768.808 8.196-.84 14.952-10.16 26.159-10.392 30.243-6.307 4.085 4.084 3.854 15.291-6.305 30.243 0 0-.001.001-.001.002-1.646 2.425-1.96 5.488-.839 8.193s3.509 4.647 6.387 5.197c17.757 3.389 25.844 11.15 25.844 16.927 0 5.776-8.087 13.537-25.846 16.926-2.879.551-5.267 2.495-6.387 5.2-1.12 2.706-.805 5.768.842 8.192 10.159 14.952 10.39 26.159 6.305 30.244-4.084 4.083-15.291 3.854-30.242-6.305-2.425-1.648-5.488-1.963-8.195-.842-2.706 1.121-4.649 3.51-5.198 6.388-3.389 17.756-11.15 25.844-16.926 25.844-5.777 0-13.538-8.087-16.927-25.846zm91.956 51.04h28.345c-.542 29.854-24.997 53.976-54.979 53.976h-12.1l32.227-22.604c3.391-2.378 4.212-7.056 1.833-10.447-2.379-3.392-7.056-4.211-10.447-1.833l-39.23 27.516c4.05-26.357 26.88-46.608 54.351-46.608z"/></g></svg>