<svg id="Capa_1" enable-background="new 0 0 512 512" height="100" viewBox="0 0 512 512" width="100" xmlns="http://www.w3.org/2000/svg"><path d="m145.015 497.022h-59.917v-315.945c0-4.136-3.353-7.489-7.489-7.489s-7.489 3.353-7.489 7.489v317.355c0 7.482 6.087 13.568 13.568 13.568h61.327c4.136 0 7.489-3.353 7.489-7.489s-3.353-7.489-7.489-7.489z"/><path d="m428.312 0h-344.623c-7.482 0-13.569 6.087-13.569 13.568v132.061c0 4.136 3.353 7.489 7.489 7.489s7.489-3.353 7.489-7.489v-130.651h341.803v482.044h-245.728c-4.136 0-7.489 3.353-7.489 7.489s3.353 7.489 7.489 7.489h247.139c7.481 0 13.568-6.087 13.568-13.568v-484.864c0-7.481-6.087-13.568-13.568-13.568z"/><path d="m256 66.155c20.344 0 40.183 7.104 55.863 20.002 3.194 2.627 7.913 2.168 10.541-1.026s2.169-7.914-1.026-10.541c-18.353-15.098-41.572-23.413-65.378-23.413-56.78 0-102.973 46.194-102.973 102.973s46.194 102.973 102.973 102.973 102.973-46.193 102.973-102.973c0-17.878-4.655-35.492-13.462-50.938-2.049-3.593-6.623-4.844-10.215-2.796-3.593 2.049-4.845 6.622-2.797 10.215 7.521 13.19 11.496 28.238 11.496 43.519 0 16.195-4.402 31.379-12.066 44.427-3.565-18.368-19.763-32.282-39.158-32.282h-.004c4.352-6.839 6.742-14.876 6.742-23.348 0-23.991-19.518-43.509-43.509-43.509s-43.509 19.518-43.509 43.509c0 8.473 2.391 16.509 6.742 23.348h-.004c-19.394 0-35.593 13.914-39.157 32.282-7.664-13.048-12.066-28.232-12.066-44.426-.001-48.522 39.473-87.996 87.994-87.996zm-36.771 115.118h18.149c3.361 0 6.31-2.239 7.213-5.476s-.461-6.68-3.336-8.42c-8.632-5.225-13.786-14.357-13.786-24.43 0-15.732 12.799-28.531 28.531-28.531s28.531 12.799 28.531 28.531c0 10.073-5.154 19.206-13.786 24.43-2.875 1.741-4.239 5.183-3.335 8.42.903 3.237 3.852 5.476 7.213 5.476h18.148c13.74 0 24.917 11.178 24.917 24.917v10.646c-.263.259-.526.518-.793.774-.383.368-.771.728-1.158 1.088-12.034 11.145-27.177 18.979-43.967 22.029-10.417 1.87-21.119 1.87-31.537.001-16.807-3.053-31.963-10.898-44.003-22.06-.375-.349-.75-.697-1.12-1.052-.268-.258-.533-.519-.798-.78v-10.646c0-13.739 11.178-24.917 24.917-24.917z"/><path d="m133.663 300.76c0 4.136 3.353 7.489 7.489 7.489h91.426c4.136 0 7.489-3.353 7.489-7.489s-3.353-7.489-7.489-7.489h-91.426c-4.136 0-7.489 3.353-7.489 7.489z"/><path d="m141.152 344.771h91.426c4.136 0 7.489-3.353 7.489-7.489s-3.353-7.489-7.489-7.489h-91.426c-4.136 0-7.489 3.353-7.489 7.489s3.353 7.489 7.489 7.489z"/><path d="m370.848 293.271h-91.426c-4.136 0-7.489 3.353-7.489 7.489s3.352 7.489 7.489 7.489h91.426c4.137 0 7.489-3.353 7.489-7.489s-3.352-7.489-7.489-7.489z"/><path d="m181.998 394.198c0-14.954-12.167-27.121-27.122-27.121s-27.121 12.167-27.121 27.121c0 14.955 12.167 27.122 27.121 27.122 14.955-.001 27.122-12.167 27.122-27.122zm-27.122 12.143c-6.696 0-12.143-5.448-12.143-12.144s5.448-12.143 12.143-12.143c6.696 0 12.144 5.448 12.144 12.143 0 6.697-5.448 12.144-12.144 12.144z"/><path d="m256.466 367.076c-14.955 0-27.122 12.167-27.122 27.121 0 14.955 12.167 27.122 27.122 27.122s27.121-12.167 27.121-27.122c0-14.954-12.166-27.121-27.121-27.121zm0 39.265c-6.696 0-12.144-5.448-12.144-12.144s5.448-12.143 12.144-12.143 12.143 5.448 12.143 12.143c.001 6.697-5.446 12.144-12.143 12.144z"/><path d="m330.003 394.198c0 14.955 12.167 27.122 27.121 27.122 14.955 0 27.121-12.167 27.121-27.122 0-14.954-12.167-27.121-27.121-27.121-14.954-.001-27.121 12.166-27.121 27.121zm39.265 0c0 6.696-5.447 12.144-12.143 12.144s-12.143-5.448-12.143-12.144 5.447-12.143 12.143-12.143c6.696-.001 12.143 5.447 12.143 12.143z"/></svg>